<svg version="1.1" id="Layer_1" xmlns="http://www.w3.org/2000/svg" xmlns:xlink="http://www.w3.org/1999/xlink" x="0px" y="0px"
	 width="100%" viewBox="0 0 608 544" enable-background="new 0 0 608 544" xml:space="preserve">
<path fill="#000000" opacity="1.000000" stroke="none" 
	d="
M346.999939,440.351624 
	C279.350067,440.352722 212.197983,440.050720 145.051773,440.545288 
	C125.847771,440.686768 106.482117,426.746368 106.602470,401.782257 
	C106.913307,337.299927 106.696632,272.815094 106.702934,208.331253 
	C106.704781,189.444321 117.142654,175.833771 135.460007,171.397598 
	C139.479996,170.424011 140.802139,168.825577 140.780762,164.710373 
	C140.736816,156.258621 146.498520,150.783813 155.047958,150.712128 
	C167.044098,150.611557 179.042252,150.619751 191.038559,150.711029 
	C199.919327,150.778595 205.373016,156.124298 205.250092,165.085541 
	C205.188644,169.563812 206.778748,170.987640 211.079330,170.713364 
	C215.725861,170.417007 220.409729,170.533737 225.070282,170.685623 
	C228.570450,170.799683 230.222961,169.308151 230.691620,165.858215 
	C231.875748,157.141327 233.193069,148.441498 234.551743,139.749619 
	C236.547134,126.984375 243.336456,120.032616 256.181244,117.837372 
	C260.098785,117.167847 264.120056,116.831703 268.095428,116.818390 
	C294.255219,116.730721 320.415497,116.765854 346.575592,116.778099 
	C353.125000,116.781166 359.540649,117.682358 365.589935,120.297600 
	C373.758514,123.829056 378.339233,129.980331 379.400513,138.948120 
	C380.414490,147.516006 382.178223,156.000839 383.031067,164.579971 
	C383.537201,169.671814 385.908478,170.761902 390.530884,170.733398 
	C416.856628,170.570938 443.183899,170.639923 469.510620,170.664291 
	C491.906952,170.685028 507.268097,185.909561 507.281860,208.267441 
	C507.321655,272.917847 507.320526,337.568359 507.260803,402.218750 
	C507.242889,421.626434 496.356384,435.576080 478.413055,439.727966 
	C475.436676,440.416687 472.456604,440.334808 469.467865,440.336182 
	C428.811890,440.354614 388.155914,440.350037 346.999939,440.351624 
M371.648376,409.139740 
	C413.287231,380.567291 432.158539,341.215027 426.605499,290.905792 
	C423.410156,261.956451 410.169342,237.529099 388.767181,218.025925 
	C344.723022,177.889771 280.703156,174.673401 233.736572,210.893906 
	C195.143448,240.656815 179.474747,280.985474 187.822739,328.710480 
	C202.589859,413.133148 298.873932,455.082123 371.648376,409.139740 
M472.857147,213.313919 
	C476.257874,206.173004 472.939331,199.649582 465.382233,199.505249 
	C451.571838,199.241470 437.750702,199.294525 423.938232,199.498657 
	C418.243011,199.582825 414.259583,203.663528 414.395752,208.399109 
	C414.535706,213.266693 418.486725,216.741577 424.288818,216.770752 
	C437.937561,216.839355 451.586975,216.757446 465.235962,216.792343 
	C468.058380,216.799561 470.474823,216.042068 472.857147,213.313919 
z"/>
<path fill="#000000" opacity="1.000000" stroke="none" 
	d="
M210.316772,262.438965 
	C228.279388,226.942230 256.355042,206.160583 295.771118,201.620743 
	C340.389313,196.481735 382.550140,220.507401 401.833984,259.802002 
	C424.732330,306.461914 411.524200,363.218628 367.608154,393.921356 
	C317.586273,428.892883 248.867416,415.176544 216.837616,363.232056 
	C197.127472,331.267029 195.494904,297.388184 210.316772,262.438965 
M257.233643,360.267303 
	C274.810913,375.866211 295.090515,382.516205 318.515717,378.816895 
	C359.649567,372.321014 387.277039,332.348511 378.574646,291.790131 
	C370.895050,255.998672 337.323547,228.406967 295.834534,234.770126 
	C266.954346,239.199478 246.828262,256.339447 237.797256,284.174896 
	C228.516678,312.779480 235.653214,338.267365 257.233643,360.267303 
z"/>
<path fill="#000000" opacity="1.000000" stroke="none" 
	d="
M283.212738,276.211975 
	C271.589539,285.284302 264.386444,296.744904 261.363129,310.805084 
	C259.946167,317.394623 257.533936,319.764801 252.410599,319.350159 
	C247.967377,318.990631 245.254410,315.625977 245.290421,309.554077 
	C245.461105,280.768097 263.911560,255.160461 290.961609,246.983490 
	C307.217957,242.069351 322.867401,243.748489 338.036072,251.023788 
	C342.739227,253.279541 344.885895,257.355896 343.776001,261.416748 
	C342.433655,266.328094 338.241272,268.385345 332.147247,266.596344 
	C317.772095,262.376343 304.149292,264.415039 291.057251,271.165649 
	C288.409607,272.530853 286.004852,274.367126 283.212738,276.211975 
z"/>
</svg>